<svg version="1.2" baseProfile="tiny-ps" xmlns="http://www.w3.org/2000/svg" viewBox="0 0 375 812" width="375" height="812">
	<title>background-svg</title>
	<defs>
		<clipPath clipPathUnits="userSpaceOnUse" id="cp1">
			<path d="M0 0L375 0L375 812L0 812L0 0Z" />
		</clipPath>
		<radialGradient id="grd1" gradientUnits="userSpaceOnUse"  cx="279" cy="99" r="300">
			<stop offset="0" stop-color="#000000"  />
			<stop offset="1" stop-color="#121214" stop-opacity="0" />
		</radialGradient>
		<radialGradient id="grd2" gradientUnits="userSpaceOnUse"  cx="98" cy="99" r="300">
			<stop offset="0" stop-color="#1230e2"  />
			<stop offset="1" stop-color="#121214" stop-opacity="0" />
		</radialGradient>
		<clipPath clipPathUnits="userSpaceOnUse" id="cp2">
			<path d="M0 0L375 0L375 812L0 812L0 0Z" />
		</clipPath>
		<linearGradient id="grd3" gradientUnits="userSpaceOnUse"  x1="-67.95" y1="58.938" x2="436.115" y2="232.357">
			<stop offset="0" stop-color="#0000ff"  />
			<stop offset="1" stop-color="#38ff1e"  />
		</linearGradient>
		<linearGradient id="grd4" gradientUnits="userSpaceOnUse"  x1="-67.95" y1="57.938" x2="436.115" y2="231.357">
			<stop offset="0" stop-color="#0000ff"  />
			<stop offset="1" stop-color="#38ff1e"  />
		</linearGradient>
		<linearGradient id="grd5" gradientUnits="userSpaceOnUse"  x1="95.128" y1="217.565" x2="2.238" y2="59.047">
			<stop offset="0" stop-color="#8257e5"  />
			<stop offset="1" stop-color="#ff008e" stop-opacity="0" />
		</linearGradient>
		<linearGradient id="grd6" gradientUnits="userSpaceOnUse"  x1="95.127" y1="110.155" x2="2.238" y2="-48.363">
			<stop offset="0" stop-color="#8257e5"  />
			<stop offset="1" stop-color="#ff008e" stop-opacity="0" />
		</linearGradient>
		<linearGradient id="grd7" gradientUnits="userSpaceOnUse"  x1="95.128" y1="-105.732" x2="281.421" y2="6.686">
			<stop offset="0" stop-color="#ff008e" stop-opacity="0" />
			<stop offset="1" stop-color="#ffcd1e"  />
		</linearGradient>
		<linearGradient id="grd8" gradientUnits="userSpaceOnUse"  x1="375" y1="174.833" x2="188.706" y2="62.415">
			<stop offset="0" stop-color="#ff008e" stop-opacity="0" />
			<stop offset="1" stop-color="#ffcd1e"  />
		</linearGradient>
		<linearGradient id="grd9" gradientUnits="userSpaceOnUse"  x1="281.709" y1="110.155" x2="374.598" y2="-48.363">
			<stop offset="0" stop-color="#8257e5"  />
			<stop offset="1" stop-color="#ff008e" stop-opacity="0" />
		</linearGradient>
		<linearGradient id="grd10" gradientUnits="userSpaceOnUse"  x1="188.418" y1="66.355" x2="281.307" y2="224.873">
			<stop offset="0" stop-color="#8257e5"  />
			<stop offset="1" stop-color="#ff008e" stop-opacity="0" />
		</linearGradient>
	</defs>
	<style>
		tspan { white-space:pre }
		.shp0 { fill: #202024 } 
		.shp1 { fill: url(#grd1) } 
		.shp2 { fill: url(#grd2) } 
		.shp3 { fill: url(#grd3) } 
		.shp4 { fill: url(#grd4) } 
		.shp5 { mix-blend-mode: luminosity;fill: url(#grd5) } 
		.shp6 { mix-blend-mode: luminosity;fill: url(#grd6) } 
		.shp7 { mix-blend-mode: luminosity;fill: url(#grd7) } 
		.shp8 { mix-blend-mode: luminosity;fill: url(#grd8) } 
		.shp9 { mix-blend-mode: luminosity;fill: url(#grd9) } 
		.shp10 { mix-blend-mode: luminosity;fill: url(#grd10) } 
	</style>
	<g id="Clip-Path" clip-path="url(#cp1)">
		<g id="Layer">
			<path id="Layer" class="shp0" d="M0 0L375 0L375 812L0 812L0 0Z" />
			<path id="Layer" class="shp1" d="M279 -201C444.9 -201 579 -66.9 579 99C579 264.9 444.9 399 279 399C113.1 399 -21 264.9 -21 99C-21 -66.9 113.1 -201 279 -201Z" />
			<path id="Layer" class="shp2" d="M98 -201C263.9 -201 398 -66.9 398 99C398 264.9 263.9 399 98 399C-67.9 399 -202 264.9 -202 99C-202 -66.9 -67.9 -201 98 -201Z" />
			<g id="Clip-Path" clip-path="url(#cp2)">
				<g id="Layer">
					<path id="Layer" class="shp3" d="M375 168.1L375 -310.7L187.48 -418.49L-0.04 -310.7L-0.04 168.1L187.48 275.89L375 168.1Z" />
					<path id="Layer copy 2" class="shp4" d="M375 167.1L375 -311.7L187.48 -419.49L-0.04 -311.7L-0.04 167.1L187.48 274.89L375 167.1Z" />
					<g id="Layer" style="opacity: 0.4">
						<path id="Layer" class="shp5" d="M1.84 61.39L1.84 168.8L95.13 222.5L188.42 168.8L188.42 61.39L95.13 7.69L1.84 61.39Z" />
						<path id="Layer" class="shp6" d="M1.84 -46.02L1.84 61.39L95.13 115.09L188.42 61.39L188.42 -46.02L95.13 -99.72L1.84 -46.02Z" />
						<path id="Layer" class="shp7" d="M281.71 -99.7L281.71 7.71L188.42 61.42L95.13 7.71L95.13 -99.7L188.42 -153.4L281.71 -99.7Z" />
						<path id="Layer" class="shp8" d="M188.42 168.8L188.42 61.39L281.71 7.69L375 61.39L375 168.8L281.71 222.5L188.42 168.8Z" />
						<path id="Layer" class="shp9" d="M375 -46.02L375 61.39L281.71 115.09L188.42 61.39L188.42 -46.02L281.71 -99.72L375 -46.02Z" />
						<path id="Layer" class="shp10" d="M281.71 222.53L281.71 115.12L188.42 61.42L95.13 115.12L95.13 222.53L188.42 276.23L281.71 222.53Z" />
					</g>
				</g>
			</g>
		</g>
	</g>
</svg>